<svg preserveAspectRatio="none" width="100%" height="100%" overflow="visible" style="display: block;" viewBox="0 0 15.4128 19.4892" fill="none" xmlns="http://www.w3.org/2000/svg">
<g id="Group">
<path id="Vector" d="M5.5482 14.6075L9.07418 12.5588L9.92978 13.0532L6.4038 15.1019L5.5482 14.6075Z" fill="var(--fill-0, #5B9DFC)"/>
<path id="Vector_2" d="M5.55411 12.4136L9.08011 10.365L9.07418 12.5587L5.5482 14.6074L5.55411 12.4136Z" fill="var(--fill-0, #5B9DFC)"/>
<path id="Vector_3" d="M5.55694 11.5995L9.08295 9.55081L9.07998 10.365L5.55398 12.4136L5.55694 11.5995Z" fill="var(--fill-0, black)"/>
<path id="Vector_4" d="M6.40989 12.8696L9.93589 10.8209L9.92996 13.0531L6.40398 15.1018L6.40989 12.8696Z" fill="var(--fill-0, black)"/>
<path id="Vector_5" d="M8.17681 8.42297C8.17681 9.08909 8.55575 9.87363 9.07977 10.3651L5.55376 12.4138C5.02975 11.9223 4.64784 11.1378 4.6508 10.4717C5.82614 9.78777 7.00148 9.10389 8.17681 8.42297C7.00148 9.10685 5.82614 9.79073 4.6508 10.4717C4.6508 10.0661 4.79588 9.77889 5.0268 9.64567L8.55278 7.59698C8.32186 7.7302 8.17681 8.01737 8.17681 8.42297Z" fill="var(--fill-0, #5B9DFC)"/>
<path id="Vector_6" d="M5.55687 11.5995L9.08288 9.55081L9.93846 10.0452L6.40951 12.0939L5.55687 11.5995Z" fill="var(--fill-0, black)"/>
<path id="Vector_7" d="M6.40976 12.094L9.93871 10.0453L9.93576 10.821L6.40976 12.8697V12.094Z" fill="var(--fill-0, black)"/>
<path id="Vector_8" d="M9.93576 10.8209C10.1045 10.8416 10.2555 10.812 10.3798 10.741L6.85384 12.7896C6.7295 12.8637 6.57851 12.8903 6.40976 12.8696C7.46667 12.2538 8.73675 11.0666 9.93576 10.8209Z" fill="var(--fill-0, #5B9DFC)"/>
<path id="Vector_9" d="M5.02432 9.64556L8.55033 7.59687C8.78421 7.46069 9.10986 7.47845 9.46808 7.68568L5.94208 9.73438C5.58386 9.52714 5.25821 9.50937 5.02432 9.64556Z" fill="var(--fill-0, black)"/>
<path id="Vector_10" d="M5.94159 9.7345C6.65508 10.146 7.2324 11.1437 7.22943 11.9608C7.22943 12.5885 6.88601 12.9289 6.40936 12.8697V12.094L5.55673 11.5996V12.4108C5.02975 11.9194 4.64784 11.1348 4.6508 10.4687C4.6508 9.6516 5.23403 9.32003 5.94456 9.73154L5.94159 9.7345Z" fill="var(--fill-0, black)"/>
<path id="Vector_11" d="M10.3798 10.741L6.85382 12.7897C7.08474 12.6535 7.22981 12.3693 7.22981 11.9607C7.22981 11.1436 6.65546 10.1459 5.94197 9.73443L9.46798 7.68574C10.1815 8.09725 10.7588 9.09495 10.7558 9.91206C10.7558 10.3177 10.6107 10.6048 10.3798 10.741Z" fill="var(--fill-0, black)"/>
<path id="Vector_12" d="M14.7258 17.2867L11.1998 19.3354C11.6054 19.0986 11.86 18.5953 11.86 17.8818L15.386 15.8331C15.386 16.5466 15.1314 17.0499 14.7258 17.2867Z" fill="var(--fill-0, black)"/>
<path id="Vector_13" d="M0.0267323 2.05191L11.8866 8.89962L11.86 17.8819C11.857 19.3207 10.8386 19.901 9.5863 19.1786L2.25899 14.948C1.00668 14.2256 -0.00286291 12.473 9.76249e-05 11.0342L0.0267323 2.05191ZM6.40964 12.8697C6.88925 12.9289 7.22971 12.5884 7.22971 11.9608C7.22971 11.1437 6.65536 10.146 5.94187 9.73449C5.23134 9.32298 4.65108 9.65455 4.64812 10.4717C4.64812 11.1378 5.02708 11.9223 5.5511 12.4138L5.54517 14.6105L6.40077 15.1049L6.40668 12.8727" fill="var(--fill-0, #FF82E7)"/>
<path id="Vector_14" d="M6.40971 12.094V12.8697L6.4038 15.1019L5.5482 14.6075L5.55411 12.4138L5.55707 11.5996L6.40971 12.094Z" fill="var(--fill-0, black)"/>
<path id="Vector_15" d="M11.8868 8.89657L15.4128 6.84788L15.3891 15.8331L11.8601 17.8818L11.8868 8.89657Z" fill="var(--fill-0, black)"/>
<path id="Vector_16" d="M0.0268897 2.05165L3.55289 0L15.4128 6.84771L11.8868 8.8964L0.0268897 2.05165Z" fill="var(--fill-0, #FFB0BC)"/>
</g>
</svg>
