<svg preserveAspectRatio="none" width="100%" height="100%" overflow="visible" style="display: block;" viewBox="0 0 12.8 12.8" fill="none" xmlns="http://www.w3.org/2000/svg">
<path id="Vector" d="M6.40467 12.8C5.52378 12.8 4.69444 12.6333 3.91667 12.3C3.13889 11.9667 2.45833 11.5083 1.875 10.925C1.29167 10.3417 0.833333 9.66133 0.5 8.884C0.166667 8.10667 0 7.27611 0 6.39233C0 5.50856 0.166667 4.68056 0.5 3.90833C0.833333 3.13611 1.29167 2.45833 1.875 1.875C2.45833 1.29167 3.13867 0.833333 3.916 0.5C4.69333 0.166667 5.52389 0 6.40767 0C7.29144 0 8.11945 0.166667 8.89167 0.5C9.66389 0.833333 10.3417 1.29167 10.925 1.875C11.5083 2.45833 11.9667 3.13733 12.3 3.912C12.6333 4.68678 12.8 5.51456 12.8 6.39533C12.8 7.27622 12.6333 8.10556 12.3 8.88333C11.9667 9.66111 11.5083 10.3417 10.925 10.925C10.3417 11.5083 9.66267 11.9667 8.888 12.3C8.11322 12.6333 7.28544 12.8 6.40467 12.8ZM6.4 11.6C7.84444 11.6 9.07222 11.0944 10.0833 10.0833C11.0944 9.07222 11.6 7.84444 11.6 6.4C11.6 4.95556 11.0944 3.72778 10.0833 2.71667C9.07222 1.70556 7.84444 1.2 6.4 1.2C4.95556 1.2 3.72778 1.70556 2.71667 2.71667C1.70556 3.72778 1.2 4.95556 1.2 6.4C1.2 7.84444 1.70556 9.07222 2.71667 10.0833C3.72778 11.0944 4.95556 11.6 6.4 11.6ZM6.4 10.4C5.28889 10.4 4.34444 10.0111 3.56667 9.23333C2.78889 8.45556 2.4 7.51111 2.4 6.4C2.4 5.28889 2.78889 4.34444 3.56667 3.56667C4.34444 2.78889 5.28889 2.4 6.4 2.4C7.51111 2.4 8.45556 2.78889 9.23333 3.56667C10.0111 4.34444 10.4 5.28889 10.4 6.4C10.4 7.51111 10.0111 8.45556 9.23333 9.23333C8.45556 10.0111 7.51111 10.4 6.4 10.4ZM6.4 9.2C7.17778 9.2 7.83889 8.92778 8.38333 8.38333C8.92778 7.83889 9.2 7.17778 9.2 6.4C9.2 5.62222 8.92778 4.96111 8.38333 4.41667C7.83889 3.87222 7.17778 3.6 6.4 3.6C5.62222 3.6 4.96111 3.87222 4.41667 4.41667C3.87222 4.96111 3.6 5.62222 3.6 6.4C3.6 7.17778 3.87222 7.83889 4.41667 8.38333C4.96111 8.92778 5.62222 9.2 6.4 9.2ZM6.3965 7.6C6.0655 7.6 5.78333 7.48217 5.55 7.2465C5.31667 7.01083 5.2 6.7275 5.2 6.3965C5.2 6.0655 5.31783 5.78333 5.5535 5.55C5.78917 5.31667 6.0725 5.2 6.4035 5.2C6.7345 5.2 7.01667 5.31783 7.25 5.5535C7.48333 5.78917 7.6 6.0725 7.6 6.4035C7.6 6.7345 7.48217 7.01667 7.2465 7.25C7.01083 7.48333 6.7275 7.6 6.3965 7.6Z" fill="var(--fill-0, #FAAF00)"/>
</svg>
